<svg width="22" height="32" viewBox="0 0 22 32" fill="none" xmlns="http://www.w3.org/2000/svg">
<g id="Group">
<g id="Clip path group">
<mask id="mask0_2766_6845" style="mask-type:luminance" maskUnits="userSpaceOnUse" x="0" y="7" width="22" height="25">
<g id="clippath">
<path id="SVGID" d="M4.91083 26.7294C5.49892 26.0606 6.43865 25.8335 7.26318 26.1649C8.08772 26.4901 8.62124 27.3061 8.60305 28.1958C8.34841 27.4718 7.7967 26.895 7.08736 26.6128C6.37802 26.3305 5.58986 26.3735 4.91083 26.7294ZM11.8102 29.5948C11.4283 28.4597 11.9376 27.2141 12.9985 26.6741C14.0595 26.1403 15.3509 26.4778 16.0178 27.4718C15.2478 26.7601 14.1262 26.6005 13.1986 27.073C12.265 27.5454 11.7193 28.5456 11.8163 29.5948H11.8102ZM10.8281 7.57955C6.05063 8.38947 2.49785 12.4882 2.31597 17.3846C2.24928 19.1762 2.64336 20.9004 3.40121 22.4159C2.34022 22.5325 1.51569 23.4406 1.51569 24.5389C1.51569 24.7291 1.53994 24.9193 1.58844 25.0972C1.66726 25.0788 1.95221 25.0113 2.28566 25.0359C3.17082 25.1095 3.9226 25.7415 4.15299 26.6067C3.70434 25.9808 3.00713 25.5881 2.24322 25.5206C1.47931 25.4593 0.733593 25.7292 0.187945 26.2753C0.0666903 26.5453 0 26.846 0 27.165C0 27.9933 0.460769 28.7112 1.1398 29.0671C1.44294 29.8648 2.21291 30.4354 3.11019 30.4354C3.83166 30.4354 4.46825 30.0672 4.8502 29.515C5.23822 29.9875 5.82631 30.2943 6.48109 30.2943C7.23287 30.2943 7.89977 29.8954 8.2696 29.2941C8.25747 29.3923 8.25141 29.4966 8.25141 29.6009C8.25141 30.9263 9.31239 32 10.6219 32C11.5071 32 12.2771 31.5092 12.6833 30.7851C13.0713 31.0612 13.5381 31.2208 14.0474 31.2208C14.9689 31.2208 15.7692 30.687 16.1633 29.9077C16.5634 30.2268 17.0727 30.4109 17.6184 30.4109C18.9279 30.4109 19.9889 29.3371 19.9889 28.0118C19.9889 27.1159 19.5039 26.3305 18.7824 25.9194C20.0071 24.9561 21.0317 23.6983 21.735 22.2012C20.7043 23.3179 19.4433 24.1339 18.0731 24.6248C17.776 24.1646 17.3092 23.8333 16.7575 23.7228C16.7575 23.7106 16.7575 23.6983 16.7453 23.686C16.6726 23.5633 16.6968 23.5326 16.4604 23.5019C16.4604 23.5019 16.2239 23.1706 16.0481 22.9804L16.4058 20.8451H16.8423C16.8423 20.8451 19.1219 16.2862 16.3209 13.5129L16.5513 12.9361L16.2421 12.6968C16.2421 12.6968 17.1576 9.18713 17.2 8.61036C17.2425 8.0336 17.873 8.05814 17.873 8.05814C17.873 8.05814 17.7214 7.86793 17.394 7.97224C17.0667 8.07655 16.9636 7.34025 16.6483 7.10096C16.3331 6.86166 16.7575 7.59182 16.715 7.65931C16.6726 7.73294 16.3937 7.45683 16.2118 7.43843C16.0299 7.42002 16.2785 7.65931 16.4846 7.8618C16.6968 8.06428 16.1451 7.95383 16.0239 8.00292C15.7389 8.1195 16.5756 8.08268 16.5938 8.34039C16.6301 9.07055 15.1266 12.5986 15.0538 12.6784C14.975 12.7704 14.7689 12.6661 14.878 12.433C14.9871 12.1937 15.2963 11.7519 15.1448 11.5678C14.9932 11.3837 14.3505 10.9911 14.3505 10.9911L14.4475 10.6045L13.5199 10.7333C13.4411 10.6843 13.1804 10.3529 12.7136 10.2486C12.7136 10.2486 12.8712 9.74549 12.3923 9.24849C12.5923 10.2486 11.21 10.175 10.6765 11.2488C9.2942 14.0467 13.3926 14.1817 13.7806 13.6479C13.7806 13.6479 14.1808 13.4945 14.0777 13.881C13.9807 14.2614 13.3199 14.8996 13.2289 15.2248C13.138 15.5499 12.9925 16.4458 12.7621 16.5255C12.5257 16.6053 12.0831 16.6728 12.077 16.771C12.077 16.8691 12.4286 16.8569 12.5681 16.8569C12.7075 16.8569 12.5499 17.1269 12.4286 17.268C12.3074 17.403 12.3195 17.6423 12.6893 17.2802C13.0592 16.9244 12.8712 17.4336 12.8712 17.6361C12.8712 17.8386 13.0531 17.5625 13.1441 17.3109C13.2411 17.0594 13.4351 17.1146 13.4411 17.2189C13.4533 17.3232 13.6655 17.5011 13.6048 17.0716C13.5442 16.6421 13.3441 16.636 13.4957 16.3108C13.5927 16.1022 13.7806 15.7156 14.102 15.4579C14.1687 15.5561 14.2111 15.642 14.2111 15.642L14.7992 15.2002C14.7992 15.2002 15.5085 16.1881 14.9689 17.5748C14.9689 17.5748 14.6719 18.0656 14.5324 18.219L14.7992 20.8513H15.363C15.3388 21.109 15.2721 21.9496 15.3933 22.8147C15.3933 22.8147 15.1569 22.8884 15.1933 23.0479C15.2357 23.2013 15.9026 23.6615 16.0906 23.686C15.2842 23.7842 14.6173 24.3548 14.3809 25.1218H14.2778C13.908 24.7598 13.4108 24.5389 12.8591 24.5389C12.6045 24.5389 12.3559 24.588 12.1316 24.6739L12.0467 24.6432C10.5431 23.2258 8.2211 23.2136 6.70541 24.6125C7.95433 22.6797 10.8281 22.6675 12.0588 24.6248C12.077 24.4591 12.077 24.3057 12.077 24.1339C12.077 20.6979 6.66903 19.44 4.31668 22.5141C4.48038 22.1337 4.99571 20.8697 6.89335 20.207C6.29314 19.0658 5.92937 17.7957 5.83843 16.458C5.59592 12.7582 7.55419 9.26689 10.8099 7.57341L10.8281 7.57955Z" fill="white"/>
</g>
</mask>
<g mask="url(#mask0_2766_6845)">
<g id="Group_2">
<path id="Vector" d="M21.7348 6.86768H0.00585938V31.9999H21.7348V6.86768Z" fill="url(#paint0_linear_2766_6845)"/>
</g>
</g>
</g>
<g id="Clip path group_2">
<mask id="mask1_2766_6845" style="mask-type:luminance" maskUnits="userSpaceOnUse" x="15" y="0" width="7" height="9">
<g id="clippath-1">
<path id="SVGID_2" d="M17.4367 0.0736296L17.7822 1.1658C17.7944 1.20875 17.8307 1.2333 17.8792 1.2333H19.013C19.0554 1.2333 19.0918 1.25784 19.11 1.30079C19.1221 1.34374 19.11 1.38669 19.0736 1.41123L18.1581 2.08003C18.1217 2.10458 18.1096 2.15366 18.1217 2.19048L18.4734 3.28265C18.4855 3.3256 18.4734 3.36855 18.437 3.3931C18.4006 3.41764 18.3521 3.41764 18.3218 3.3931L17.4063 2.71816C17.37 2.69361 17.3215 2.69361 17.2911 2.71816L17.273 2.73043C17.5822 3.12926 18.9766 5.15407 17.7883 7.90291C19.4313 6.35055 20.1043 4.19075 20.2801 3.52195L19.8254 3.85328C19.8254 3.85328 19.7648 3.87169 19.7405 3.85328C19.7163 3.83487 19.7041 3.79806 19.7162 3.76738L19.9769 2.95745C19.9891 2.92677 19.977 2.88996 19.9527 2.87155L19.2737 2.37455C19.2737 2.37455 19.2373 2.31933 19.2494 2.28865C19.2615 2.25797 19.2858 2.23957 19.3222 2.23957H20.1588C20.1891 2.23957 20.2195 2.22116 20.2316 2.19048L20.4923 1.38055C20.5044 1.34988 20.5287 1.33147 20.565 1.33147C20.6014 1.33147 20.6257 1.34988 20.6378 1.38055L20.8985 2.19048C20.9106 2.22116 20.9349 2.23957 20.9712 2.23957H21.8079C21.8382 2.23957 21.8685 2.25797 21.8807 2.28865C21.8928 2.31933 21.8807 2.35001 21.8564 2.37455L21.1774 2.87155C21.1774 2.87155 21.141 2.92677 21.1531 2.95745L21.4138 3.76738C21.4259 3.79806 21.4138 3.82874 21.3896 3.85328C21.3653 3.87169 21.3289 3.87169 21.3047 3.85328L20.6257 3.35014C20.6257 3.35014 20.5832 3.33174 20.559 3.33787C20.1467 5.16634 18.8857 7.5593 17.3033 8.50421C18.0005 7.39977 18.6795 4.85342 17.1517 2.83474L16.406 3.38696C16.3696 3.4115 16.3272 3.4115 16.2908 3.38696C16.2544 3.36242 16.2423 3.31333 16.2544 3.27652L16.6061 2.18434C16.6182 2.14139 16.6061 2.09844 16.5697 2.0739L15.6542 1.4051C15.6178 1.38055 15.6057 1.33147 15.6178 1.29465C15.63 1.2517 15.6663 1.22716 15.7148 1.22716H16.8486C16.891 1.22716 16.9274 1.20262 16.9456 1.15967L17.2911 0.0674938C17.3033 0.0245432 17.3397 0 17.3882 0C17.4367 0 17.467 0.0245432 17.4852 0.0674938" fill="white"/>
</g>
</mask>
<g mask="url(#mask1_2766_6845)">
<g id="Group_3">
<path id="Vector_2" d="M21.8566 0.00610352H15.5635V8.52259H21.8566V0.00610352Z" fill="url(#paint1_linear_2766_6845)"/>
</g>
</g>
</g>
</g>
<defs>
<linearGradient id="paint0_linear_2766_6845" x1="13.3318" y1="34.8469" x2="7.56652" y2="-0.430598" gradientUnits="userSpaceOnUse">
<stop stop-color="#7F55D9"/>
<stop offset="1" stop-color="#DA17B8"/>
</linearGradient>
<linearGradient id="paint1_linear_2766_6845" x1="23.5845" y1="34.7899" x2="17.813" y2="-0.487527" gradientUnits="userSpaceOnUse">
<stop stop-color="#6A00B7"/>
<stop offset="1" stop-color="#DA17B8"/>
</linearGradient>
</defs>
</svg>
